<svg id="Layer_1" data-name="Layer 1" xmlns="http://www.w3.org/2000/svg" viewBox="0 0 843.23 787.51"><defs><style>.cls-1{fill:#047857;}</style></defs><title>icon-mobile-green</title><path d="M839.61,46a36.66,36.66,0,0,0-26.07-10.81l-384.16-1h0A36.91,36.91,0,0,0,392.49,71l-.07,93-231.21.28a35.09,35.09,0,0,0-35.05,35.11h0l.7,587.26A35.16,35.16,0,0,0,162,821.7h0l259-.32a35.09,35.09,0,0,0,35.05-35.11h0V752.55l357,.89h0a36.87,36.87,0,0,0,36.87-36.86l.46-644.53A36.63,36.63,0,0,0,839.61,46ZM438.25,803.54A24.18,24.18,0,0,1,421,810.7L162,811h0a24.45,24.45,0,0,1-24.43-24.38l-.3-255.23H145l.25,207.09a15,15,0,0,0,15,15h0l262.19-.31h0a15.06,15.06,0,0,0,15-15l-.61-500.48a15,15,0,0,0-15-15h0L159.67,223a15.06,15.06,0,0,0-15,15L145,520.73h-7.77l-.38-321.35A24.39,24.39,0,0,1,161.22,175l259-.31h0A24.41,24.41,0,0,1,444.68,199l.7,587.25A24.26,24.26,0,0,1,438.25,803.54Zm-15.77-61.21-262.19.32h0a4.2,4.2,0,0,1-4.16-4.17L155.52,238a4.17,4.17,0,0,1,4.16-4.17l262.18-.32h0a4.2,4.2,0,0,1,4.16,4.17l.61,500.47a4.17,4.17,0,0,1-4.17,4.17Zm22.57-568.12a34.75,34.75,0,0,0-16.66-9.29V110.33a4.83,4.83,0,0,1,4.81-4.81h0l377.12.94a4.86,4.86,0,0,1,4.83,4.85l-.4,554.31a4.83,4.83,0,0,1-4.81,4.8h0l-354-.87L455.36,199a34.85,34.85,0,0,0-10.31-24.79Zm394.2,542.37a26.2,26.2,0,0,1-26.18,26.18h0l-357-.89L456,680.08,810,681h0a15.36,15.36,0,0,0,15.33-15.33l.41-554.3A15.4,15.4,0,0,0,810.4,95.94L433.27,95h0a15.37,15.37,0,0,0-15.34,15.33V164H403.17l.07-93a26.21,26.21,0,0,1,26.18-26.17h0l384.16,1A26.19,26.19,0,0,1,839.71,72Z" transform="translate(-7.15 -34.19)"/><path d="M619.13,689.33h0A19.89,19.89,0,1,0,639,709.24h0a19.9,19.9,0,0,0-19.87-19.91h0Zm0,29.1a9.21,9.21,0,0,1,0-18.42h0a9.21,9.21,0,0,1,0,18.42Z" transform="translate(-7.15 -34.19)"/><path d="M713.4,72.44H531a5.43,5.43,0,1,0,0,10.86H713.4a5.43,5.43,0,1,0,0-10.86Z" transform="translate(-7.15 -34.19)"/><path d="M291.78,760.94h0a19.07,19.07,0,0,0,0,38.13h0A19.1,19.1,0,0,0,310.85,780h0a19.09,19.09,0,0,0-19.07-19Zm0,27.45h0a8.39,8.39,0,0,1-5.92-14.31,8.61,8.61,0,0,1,5.93-2.46,8.39,8.39,0,0,1,.58,16.77h-.59Z" transform="translate(-7.15 -34.19)"/><path d="M357.44,195.27H224.78a5.34,5.34,0,0,0,0,10.68H357.44a5.34,5.34,0,1,0,0-10.68Z" transform="translate(-7.15 -34.19)"/><path d="M67.11,518.58a112.08,112.08,0,0,0,15,6.53L85.62,515a102.3,102.3,0,0,1-13.54-5.9Z" transform="translate(-7.15 -34.19)"/><path d="M68.17,319.55l4.87,9.5a101.38,101.38,0,0,1,13.59-5.75L83.2,313.19A110.81,110.81,0,0,0,68.17,319.55Z" transform="translate(-7.15 -34.19)"/><path d="M41.68,338.43l7.39,7.71a102.4,102.4,0,0,1,11.37-9.42l-6.2-8.7A112.62,112.62,0,0,0,41.68,338.43Z" transform="translate(-7.15 -34.19)"/><path d="M17.84,419.34c0-2.63.1-5.29.3-7.91l-10.65-.82c-.22,2.89-.34,5.83-.34,8.72,0,2.5.09,5.05.26,7.58l10.65-.71C17.91,423.91,17.84,421.6,17.84,419.34Z" transform="translate(-7.15 -34.19)"/><path d="M20.11,440.81,9.68,443.07a112.21,112.21,0,0,0,4.59,15.65l10-3.75A101.2,101.2,0,0,1,20.11,440.81Z" transform="translate(-7.15 -34.19)"/><path d="M40.81,499.41A114.34,114.34,0,0,0,53.26,510l6.29-8.63a101.39,101.39,0,0,1-11.26-9.54Z" transform="translate(-7.15 -34.19)"/><path d="M21.1,473.53A112.51,112.51,0,0,0,30,487.18l8.49-6.47a101.55,101.55,0,0,1-8.06-12.36Z" transform="translate(-7.15 -34.19)"/><path d="M21.69,364.11,31,369.38a100.92,100.92,0,0,1,8.2-12.28l-8.43-6.56A112.18,112.18,0,0,0,21.69,364.11Z" transform="translate(-7.15 -34.19)"/><path d="M24.65,382.72l-10-3.86a113.49,113.49,0,0,0-4.77,15.62l10.42,2.36A100.61,100.61,0,0,1,24.65,382.72Z" transform="translate(-7.15 -34.19)"/><rect x="309.32" y="486.54" width="15.56" height="10.68"/><path d="M97.83,529.37A112.73,112.73,0,0,0,114,531.3l.48-10.67a103.11,103.11,0,0,1-14.65-1.74Z" transform="translate(-7.15 -34.19)"/><rect x="247.11" y="486.54" width="15.56" height="10.68"/><rect x="340.43" y="486.54" width="15.56" height="10.68"/><rect x="278.22" y="486.54" width="15.56" height="10.68"/><rect x="216" y="486.54" width="15.55" height="10.68"/><rect x="153.78" y="486.54" width="15.56" height="10.68"/><path d="M99,309.09l1.92,10.51a101.59,101.59,0,0,1,14.66-1.6l-.37-10.68A113,113,0,0,0,99,309.09Z" transform="translate(-7.15 -34.19)"/><rect x="184.89" y="486.54" width="15.55" height="10.68"/><g id="Jan_with_Paperplane" data-name="Jan with Paperplane"><g id="Plane_Backdrop" data-name="Plane Backdrop"><polygon class="cls-1" points="306.8 439.85 303.01 385.3 679.82 479.32 306.8 439.85"/><polygon class="cls-1" points="679.82 479.32 313.99 595.67 307.49 548.36 679.82 479.32"/></g><g id="Plane_Front" data-name="Plane Front"><polygon class="cls-1" points="679.82 479.32 253.53 548.36 305.82 451.93 679.82 479.32"/></g></g></svg>