<svg id="Layer_1" data-name="Layer 1" xmlns="http://www.w3.org/2000/svg" viewBox="0 0 796.46 850.39"><defs><style>.cls-1{fill:#047857;}</style></defs><title>icon-graphics-green</title><path d="M802,177.78H711.54L658.19,2.25,657.51,0,647.45,33.1l-44,144.68h-555A21.48,21.48,0,0,0,27,199.24V694.81a21.49,21.49,0,0,0,21.46,21.46h262a106.51,106.51,0,0,1,2.44,27l-.21,5.4a120.84,120.84,0,0,1-1.69,13.4c-4.41,24.24-41.78,29.28-42.15,29.33v.38H246a21.49,21.49,0,0,0-21.46,21.45v15.7A21.48,21.48,0,0,0,246,850.39H604.44a21.48,21.48,0,0,0,21.46-21.46v-15.7a21.49,21.49,0,0,0-21.46-21.45H581.56v-.38c-.37,0-37.72-5-42.14-29.33a122.36,122.36,0,0,1-1.9-18.81,106.54,106.54,0,0,1,2.48-27H802a21.48,21.48,0,0,0,21.46-21.46V199.24A21.48,21.48,0,0,0,802,177.78ZM592.76,664.27H72.17V216.7h520.6Zm11.53-448.6c7.24-10,14.84-15.07,22.59-15.09h0c11.75,0,21.7,11.25,24.82,15.19v448.5H604.28Zm59,448.59V215.68c7.24-10,14.84-15.09,22.6-15.1h0c11.76,0,21.7,11.25,24.82,15.19v448.5Zm59-447.56h56V664.27h-56ZM686,189.06h0c-10.31,0-19.9,5.24-28.58,15.54-6-6.37-16.88-15.54-30.4-15.54a31.25,31.25,0,0,0-16.26,4.7l29.51-97.12L671.7,86.12l33.08,108.81a35.61,35.61,0,0,0-18.87-5.87Zm-17.62-114-24,8,13.22-43.5ZM527.65,719.63c-.07.41-.15.82-.21,1.22-.15.91-.27,1.81-.4,2.72a1.36,1.36,0,0,1-.08.56q-.44,3.36-.68,6.73v.32c-.07,1-.13,2-.17,3v.75c0,.86-.06,1.72-.07,2.58v.19H324.42a118.46,118.46,0,0,0-2-19.88H528A18.08,18.08,0,0,0,527.65,719.63Zm86.73,93.6v15.7a10,10,0,0,1-9.94,9.94H246a10,10,0,0,1-9.94-9.94v-15.7A9.94,9.94,0,0,1,246,803.3H604.44A9.94,9.94,0,0,1,614.38,813.23Zm-65.86-21.45H301.88c9.5-5.84,18-14.6,20.4-27.66a133.3,133.3,0,0,0,1.82-14.89H526.31a133.17,133.17,0,0,0,1.81,14.9c2.38,13,10.88,21.81,20.4,27.65Zm263.4-97a10,10,0,0,1-9.94,9.94H48.41a10,10,0,0,1-9.94-9.94V199.24a10,10,0,0,1,9.94-9.94H600l-4.82,15.88H60.65V675.79h729.1V205.18H719.87L715,189.3h87a10,10,0,0,1,9.94,9.94Z" transform="translate(-27)"/><polygon points="389.36 506.31 377.84 506.31 377.84 511.39 372.76 511.39 372.76 522.91 389.36 522.91 389.36 506.31"/><rect x="229.88" y="511.39" width="20.57" height="11.52"/><rect x="158.44" y="511.39" width="20.57" height="11.52"/><rect x="194.16" y="511.39" width="20.57" height="11.52"/><rect x="301.32" y="511.39" width="20.57" height="11.52"/><rect x="337.04" y="511.39" width="20.57" height="11.52"/><polygon points="143.29 511.39 138.21 511.39 138.21 506.31 126.69 506.31 126.69 522.91 143.29 522.91 143.29 511.39"/><rect x="126.69" y="436.65" width="11.52" height="20.06"/><rect x="126.69" y="401.83" width="11.52" height="20.06"/><rect x="126.69" y="471.48" width="11.52" height="20.06"/><rect x="126.69" y="332.18" width="11.52" height="20.06"/><rect x="126.69" y="367" width="11.52" height="20.06"/><rect x="126.69" y="297.35" width="11.52" height="20.06"/><polygon points="138.21 277.5 143.29 277.5 143.29 265.99 126.69 265.99 126.69 282.59 138.21 282.59 138.21 277.5"/><rect x="265.6" y="265.99" width="20.57" height="11.52"/><rect x="337.04" y="265.99" width="20.57" height="11.52"/><rect x="301.32" y="265.99" width="20.57" height="11.52"/><rect x="194.16" y="265.99" width="20.57" height="11.52"/><rect x="158.44" y="265.99" width="20.57" height="11.52"/><rect x="229.88" y="265.99" width="20.57" height="11.52"/><polygon points="377.84 282.59 389.36 282.59 389.36 265.99 372.76 265.99 372.76 277.5 377.84 277.5 377.84 282.59"/><rect x="377.84" y="332.18" width="11.52" height="20.06"/><rect x="377.84" y="401.83" width="11.52" height="20.06"/><rect x="377.84" y="297.35" width="11.52" height="20.06"/><rect x="377.84" y="436.65" width="11.52" height="20.06"/><rect x="377.84" y="471.48" width="11.52" height="20.06"/><path d="M425.24,625.19a126,126,0,0,0,0-252q-4.49,0-8.88.32V367H404.84v7.89c-59.8,9.78-105.58,61.8-105.58,124.32q0,6.17.59,12.18H292.6v11.52h8.9C312.62,581.08,363.87,625.19,425.24,625.19Zm-114.46-126a114.66,114.66,0,0,1,94.06-112.64V387h11.52v-2c2.93-.22,5.89-.34,8.88-.34A114.46,114.46,0,1,1,313.17,522.54V511.39h-1.74a115.29,115.29,0,0,1-.65-12.18Z" transform="translate(-27)"/><polygon class="cls-1" points="259.88 415.15 308.41 499.21 356.94 583.27 259.88 583.27 162.81 583.27 211.34 499.21 259.88 415.15"/></svg>