<svg id="Layer_1" data-name="Layer 1" xmlns="http://www.w3.org/2000/svg" viewBox="0 0 850.41245 830.07033"><defs><style>.cls-1{fill:#047857;}</style></defs><title>icon-content-green</title><path d="M850.34,294a43.5601,43.5601,0,0,0-5.4-19.19l-10.6,5.84a31.48011,31.48011,0,0,1,3.91,13.91Z" transform="translate(0.0225 -9.77)"/><rect x="708.17253" y="242.23" width="17.34998" height="12.10001"/><rect x="742.87248" y="242.23" width="17.34998" height="12.10001"/><rect x="838.31248" y="371.27999" width="12.09998" height="17.35001"/><path d="M830.6,427l9.19,7.88A44.22017,44.22017,0,0,0,849,417.15l-11.72-3A32.05029,32.05029,0,0,1,830.6,427Z" transform="translate(0.0225 -9.77)"/><rect x="838.31248" y="301.88" width="12.09998" height="17.35001"/><rect x="769.76249" y="428.37002" width="17.34998" height="12.10001"/><rect x="838.31248" y="336.58001" width="12.09998" height="17.35001"/><path d="M813.15,252.53l-1.87,12a32.1297,32.1297,0,0,1,13.4,5.41l7-9.89A44.09005,44.09005,0,0,0,813.15,252.53Z" transform="translate(0.0225 -9.77)"/><rect x="777.57249" y="242.23" width="17.34998" height="12.10001"/><path d="M806.3,438.14h-1.87v12.1h1.87a43.65005,43.65005,0,0,0,17.45-3.59L819,435.54A31.87019,31.87019,0,0,1,806.3,438.14Z" transform="translate(0.0225 -9.77)"/><rect x="578.59251" y="68.63" width="8.81" height="12.1"/><rect x="317.9925" y="242.23" width="17.89999" height="12.10001"/><rect x="353.78251" y="242.23" width="17.89999" height="12.10001"/><rect x="328.04249" y="68.63" width="17.89999" height="12.1"/><rect x="292.2425" y="68.63" width="17.89999" height="12.1"/><rect x="246.40251" y="242.23" width="17.89999" height="12.10001"/><rect x="282.19251" y="242.23" width="17.89999" height="12.10001"/><rect x="256.45249" y="68.63" width="17.89999" height="12.1"/><rect x="363.8325" y="68.63" width="17.89999" height="12.1"/><rect x="542.80253" y="68.63" width="17.90002" height="12.1"/><rect x="507.00251" y="68.63" width="17.89999" height="12.1"/><rect x="471.2125" y="68.63" width="17.89999" height="12.1"/><rect x="399.62251" y="68.63" width="17.89999" height="12.1"/><rect x="435.4225" y="68.63" width="17.89999" height="12.1"/><path d="M72.3,107.25l-10.63-5.78a44.09991,44.09991,0,0,0-5.31,19.86l12.1.31A31.54,31.54,0,0,1,72.3,107.25Z" transform="translate(0.0225 -9.77)"/><rect x="103.2225" y="242.23" width="17.9" height="12.10001"/><path d="M96.17,90.79l-1.59-12a44.15011,44.15011,0,0,0-19.18,7.4l6.88,10A31.94,31.94,0,0,1,96.17,90.79Z" transform="translate(0.0225 -9.77)"/><rect x="220.6625" y="68.63" width="17.89999" height="12.1"/><rect x="56.3625" y="129.61001" width="12.1" height="17.89999"/><path d="M69.3,227.39a32.00019,32.00019,0,0,1-.85-7.39v-9H56.34v9a44.39039,44.39039,0,0,0,1.18,10.17Z" transform="translate(0.0225 -9.77)"/><rect x="56.3625" y="165.41" width="12.1" height="17.89999"/><path d="M76,240.69l-9.23,7.83a44.31992,44.31992,0,0,0,16.56,12.15l4.69-11.16A32.25992,32.25992,0,0,1,76,240.69Z" transform="translate(0.0225 -9.77)"/><rect x="174.81249" y="242.23" width="17.89999" height="12.10001"/><rect x="184.8625" y="68.63" width="17.89999" height="12.1"/><rect x="210.6025" y="242.23" width="17.89999" height="12.10001"/><rect x="113.2725" y="68.63" width="17.89999" height="12.1"/><rect x="139.0225" y="242.23" width="17.89999" height="12.10001"/><rect x="149.0725" y="68.63" width="17.89999" height="12.1"/><path d="M749.54,313.13,690.8,257.8V252h-6.16l-50.3-47.38h-242V252h-2.76v12.1h2.76V407.29H273L220.26,331.8H24.36A24.57,24.57,0,0,0,0,356.54v460a16.83106,16.83106,0,0,0,0,1.74v4.48H.61a22.71976,22.71976,0,0,0,4,8.2,22.45,22.45,0,0,0,18,8.88H494.87a22.52,22.52,0,0,0,21.69-16.43L567.4,684H749.54V450.24h2.77v-12.1h-2.77Zm-31.7-11.33H645.93V234.07ZM24.36,343.91H214l52.76,75.49H392.39v81.24H129.88a22.64,22.64,0,0,0-21.74,16.42l-96,263.24V356.54A12.46,12.46,0,0,1,24.36,343.91ZM505.1,819.53l-.16.52a10.42,10.42,0,0,1-10.07,7.71H22.61a10.53,10.53,0,0,1-10.50053-10.55939l.00053-.08062h0V817a10.49043,10.49043,0,0,1,.3-2.22L119.59,521l.16-.49a10.5,10.5,0,0,1,10.13-7.74H602.13c8.45,0,9.67,10.28,9.84,13.76ZM737.44,671.94H571.81l51.92-142.36.37-1v-1.07c0-15.82-9-26.87-22-26.87H404.5V216.72h225l4.28,4v93.15h98.9l4.72,4.45Z" transform="translate(0.0225 -9.77)"/><path d="M542.82,545.1H167.13a19.24,19.24,0,0,0-18.45,13.82l-31.22,78.56-.22.65a19.22,19.22,0,0,0,18.55,24.21h375.7A19.15,19.15,0,0,0,529.9,648.5l31.64-79.63v-1.16C561.54,554.39,553.84,545.1,542.82,545.1Zm-24.29,99.23-.22.69a7,7,0,0,1-6.82,5.21H135.79a7.13,7.13,0,0,1-6.94-8.65L160,563.1l.22-.65a7.13,7.13,0,0,1,6.87-5.25H542.82c5.41,0,6.4,6.69,6.57,9.44Z" transform="translate(0.0225 -9.77)"/><circle class="cls-1" cx="604.54252" cy="71.3" r="49.03999"/><circle class="cls-1" cx="184.29251" cy="245.31001" r="49.03999"/><circle class="cls-1" cx="304.63248" cy="71.3" r="71.29999"/></svg>